<svg xmlns="http://www.w3.org/2000/svg" xmlns:xlink="http://www.w3.org/1999/xlink" width="300" zoomAndPan="magnify" viewBox="0 0 224.87999 54" height="72" preserveAspectRatio="xMidYMid meet" version="1.0"><defs><g/></defs><g fill="#38b6ff" fill-opacity="1"><g transform="translate(23.125758, 41.749511)"><g><path d="M 22.4375 -30.890625 L 22.4375 -27.609375 L 14 -27.609375 L 14 0 L 9.96875 0 L 9.96875 -27.609375 L 1.5 -27.609375 L 1.5 -30.890625 Z M 22.4375 -30.890625 "/></g></g></g><g fill="#ff3131" fill-opacity="1"><g transform="translate(47.112098, 41.749511)"><g><path d="M 15.46875 -24.734375 C 17.300781 -24.734375 18.957031 -24.34375 20.4375 -23.5625 C 21.914062 -22.78125 23.070312 -21.601562 23.90625 -20.03125 C 24.75 -18.46875 25.171875 -16.5625 25.171875 -14.3125 L 25.171875 0 L 21.1875 0 L 21.1875 -13.734375 C 21.1875 -16.160156 20.578125 -18.015625 19.359375 -19.296875 C 18.148438 -20.585938 16.5 -21.234375 14.40625 -21.234375 C 12.28125 -21.234375 10.585938 -20.566406 9.328125 -19.234375 C 8.078125 -17.910156 7.453125 -15.976562 7.453125 -13.4375 L 7.453125 0 L 3.40625 0 L 3.40625 -32.796875 L 7.453125 -32.796875 L 7.453125 -20.828125 C 8.242188 -22.078125 9.34375 -23.039062 10.75 -23.71875 C 12.15625 -24.394531 13.726562 -24.734375 15.46875 -24.734375 Z M 15.46875 -24.734375 "/></g></g></g><g fill="#ffde59" fill-opacity="1"><g transform="translate(75.493047, 41.749511)"><g><path d="M 1.90625 -12.234375 C 1.90625 -14.710938 2.40625 -16.890625 3.40625 -18.765625 C 4.414062 -20.648438 5.800781 -22.109375 7.5625 -23.140625 C 9.320312 -24.171875 11.28125 -24.6875 13.4375 -24.6875 C 15.5625 -24.6875 17.40625 -24.226562 18.96875 -23.3125 C 20.539062 -22.394531 21.707031 -21.242188 22.46875 -19.859375 L 22.46875 -24.296875 L 26.546875 -24.296875 L 26.546875 0 L 22.46875 0 L 22.46875 -4.515625 C 21.675781 -3.097656 20.488281 -1.921875 18.90625 -0.984375 C 17.320312 -0.0546875 15.484375 0.40625 13.390625 0.40625 C 11.234375 0.40625 9.28125 -0.125 7.53125 -1.1875 C 5.789062 -2.257812 4.414062 -3.753906 3.40625 -5.671875 C 2.40625 -7.597656 1.90625 -9.785156 1.90625 -12.234375 Z M 22.46875 -12.1875 C 22.46875 -14.019531 22.097656 -15.613281 21.359375 -16.96875 C 20.628906 -18.332031 19.632812 -19.375 18.375 -20.09375 C 17.113281 -20.820312 15.734375 -21.1875 14.234375 -21.1875 C 12.722656 -21.1875 11.347656 -20.832031 10.109375 -20.125 C 8.867188 -19.414062 7.878906 -18.378906 7.140625 -17.015625 C 6.398438 -15.660156 6.03125 -14.066406 6.03125 -12.234375 C 6.03125 -10.367188 6.398438 -8.75 7.140625 -7.375 C 7.878906 -6 8.867188 -4.945312 10.109375 -4.21875 C 11.347656 -3.5 12.722656 -3.140625 14.234375 -3.140625 C 15.734375 -3.140625 17.113281 -3.5 18.375 -4.21875 C 19.632812 -4.945312 20.628906 -6 21.359375 -7.375 C 22.097656 -8.75 22.46875 -10.351562 22.46875 -12.1875 Z M 22.46875 -12.1875 "/></g></g></g><g fill="#38b6ff" fill-opacity="1"><g transform="translate(105.468758, 41.749511)"><g><path d="M 5.5 -28.234375 C 4.726562 -28.234375 4.078125 -28.5 3.546875 -29.03125 C 3.015625 -29.5625 2.75 -30.210938 2.75 -30.984375 C 2.75 -31.753906 3.015625 -32.40625 3.546875 -32.9375 C 4.078125 -33.46875 4.726562 -33.734375 5.5 -33.734375 C 6.238281 -33.734375 6.863281 -33.46875 7.375 -32.9375 C 7.894531 -32.40625 8.15625 -31.753906 8.15625 -30.984375 C 8.15625 -30.210938 7.894531 -29.5625 7.375 -29.03125 C 6.863281 -28.5 6.238281 -28.234375 5.5 -28.234375 Z M 7.453125 -24.296875 L 7.453125 0 L 3.40625 0 L 3.40625 -24.296875 Z M 7.453125 -24.296875 "/></g></g></g><g fill="#00bf63" fill-opacity="1"><g transform="translate(116.379512, 41.749511)"><g><path d="M 24.953125 -24.296875 L 24.953125 0 L 20.921875 0 L 20.921875 -3.59375 C 20.148438 -2.351562 19.078125 -1.382812 17.703125 -0.6875 C 16.328125 0.0078125 14.816406 0.359375 13.171875 0.359375 C 11.273438 0.359375 9.570312 -0.03125 8.0625 -0.8125 C 6.5625 -1.601562 5.375 -2.78125 4.5 -4.34375 C 3.625 -5.90625 3.1875 -7.8125 3.1875 -10.0625 L 3.1875 -24.296875 L 7.1875 -24.296875 L 7.1875 -10.59375 C 7.1875 -8.195312 7.789062 -6.351562 9 -5.0625 C 10.207031 -3.78125 11.863281 -3.140625 13.96875 -3.140625 C 16.125 -3.140625 17.820312 -3.804688 19.0625 -5.140625 C 20.300781 -6.472656 20.921875 -8.410156 20.921875 -10.953125 L 20.921875 -24.296875 Z M 24.953125 -24.296875 "/></g></g></g><g fill="#ff3131" fill-opacity="1"><g transform="translate(144.760459, 41.749511)"><g><path d="M 8.328125 -20.96875 L 8.328125 -6.65625 C 8.328125 -5.46875 8.578125 -4.628906 9.078125 -4.140625 C 9.585938 -3.648438 10.460938 -3.40625 11.703125 -3.40625 L 14.671875 -3.40625 L 14.671875 0 L 11.03125 0 C 8.789062 0 7.109375 -0.515625 5.984375 -1.546875 C 4.859375 -2.585938 4.296875 -4.289062 4.296875 -6.65625 L 4.296875 -20.96875 L 1.15625 -20.96875 L 1.15625 -24.296875 L 4.296875 -24.296875 L 4.296875 -30.40625 L 8.328125 -30.40625 L 8.328125 -24.296875 L 14.671875 -24.296875 L 14.671875 -20.96875 Z M 8.328125 -20.96875 "/></g></g></g><g fill="#38b6ff" fill-opacity="1"><g transform="translate(160.902893, 41.749511)"><g><path d="M 1.90625 -12.234375 C 1.90625 -14.710938 2.40625 -16.890625 3.40625 -18.765625 C 4.414062 -20.648438 5.800781 -22.109375 7.5625 -23.140625 C 9.320312 -24.171875 11.28125 -24.6875 13.4375 -24.6875 C 15.5625 -24.6875 17.40625 -24.226562 18.96875 -23.3125 C 20.539062 -22.394531 21.707031 -21.242188 22.46875 -19.859375 L 22.46875 -24.296875 L 26.546875 -24.296875 L 26.546875 0 L 22.46875 0 L 22.46875 -4.515625 C 21.675781 -3.097656 20.488281 -1.921875 18.90625 -0.984375 C 17.320312 -0.0546875 15.484375 0.40625 13.390625 0.40625 C 11.234375 0.40625 9.28125 -0.125 7.53125 -1.1875 C 5.789062 -2.257812 4.414062 -3.753906 3.40625 -5.671875 C 2.40625 -7.597656 1.90625 -9.785156 1.90625 -12.234375 Z M 22.46875 -12.1875 C 22.46875 -14.019531 22.097656 -15.613281 21.359375 -16.96875 C 20.628906 -18.332031 19.632812 -19.375 18.375 -20.09375 C 17.113281 -20.820312 15.734375 -21.1875 14.234375 -21.1875 C 12.722656 -21.1875 11.347656 -20.832031 10.109375 -20.125 C 8.867188 -19.414062 7.878906 -18.378906 7.140625 -17.015625 C 6.398438 -15.660156 6.03125 -14.066406 6.03125 -12.234375 C 6.03125 -10.367188 6.398438 -8.75 7.140625 -7.375 C 7.878906 -6 8.867188 -4.945312 10.109375 -4.21875 C 11.347656 -3.5 12.722656 -3.140625 14.234375 -3.140625 C 15.734375 -3.140625 17.113281 -3.5 18.375 -4.21875 C 19.632812 -4.945312 20.628906 -6 21.359375 -7.375 C 22.097656 -8.75 22.46875 -10.351562 22.46875 -12.1875 Z M 22.46875 -12.1875 "/></g></g></g><g fill="#ffde59" fill-opacity="1"><g transform="translate(190.878602, 41.749511)"><g><path d="M 5.5 -28.234375 C 4.726562 -28.234375 4.078125 -28.5 3.546875 -29.03125 C 3.015625 -29.5625 2.75 -30.210938 2.75 -30.984375 C 2.75 -31.753906 3.015625 -32.40625 3.546875 -32.9375 C 4.078125 -33.46875 4.726562 -33.734375 5.5 -33.734375 C 6.238281 -33.734375 6.863281 -33.46875 7.375 -32.9375 C 7.894531 -32.40625 8.15625 -31.753906 8.15625 -30.984375 C 8.15625 -30.210938 7.894531 -29.5625 7.375 -29.03125 C 6.863281 -28.5 6.238281 -28.234375 5.5 -28.234375 Z M 7.453125 -24.296875 L 7.453125 0 L 3.40625 0 L 3.40625 -24.296875 Z M 7.453125 -24.296875 "/></g></g></g></svg>