<svg xmlns="http://www.w3.org/2000/svg" xmlns:xlink="http://www.w3.org/1999/xlink" width="1500" zoomAndPan="magnify" viewBox="0 0 1125 374.999991" height="500" preserveAspectRatio="xMidYMid meet" version="1.0"><defs><g/></defs><g fill="#38b6ff" fill-opacity="1"><g transform="translate(417.456226, 212.249986)"><g><path d="M 36.4375 -50.1875 L 36.4375 -44.859375 L 22.75 -44.859375 L 22.75 0 L 16.203125 0 L 16.203125 -44.859375 L 2.453125 -44.859375 L 2.453125 -50.1875 Z M 36.4375 -50.1875 "/></g></g></g><g fill="#ff3131" fill-opacity="1"><g transform="translate(456.409349, 212.249986)"><g><path d="M 25.125 -40.171875 C 28.101562 -40.171875 30.789062 -39.535156 33.1875 -38.265625 C 35.59375 -36.992188 37.476562 -35.085938 38.84375 -32.546875 C 40.207031 -30.003906 40.890625 -26.90625 40.890625 -23.25 L 40.890625 0 L 34.421875 0 L 34.421875 -22.3125 C 34.421875 -26.25 33.4375 -29.257812 31.46875 -31.34375 C 29.5 -33.4375 26.8125 -34.484375 23.40625 -34.484375 C 19.945312 -34.484375 17.195312 -33.40625 15.15625 -31.25 C 13.113281 -29.09375 12.09375 -25.945312 12.09375 -21.8125 L 12.09375 0 L 5.546875 0 L 5.546875 -53.28125 L 12.09375 -53.28125 L 12.09375 -33.84375 C 13.394531 -35.851562 15.179688 -37.410156 17.453125 -38.515625 C 19.734375 -39.617188 22.289062 -40.171875 25.125 -40.171875 Z M 25.125 -40.171875 "/></g></g></g><g fill="#ffde59" fill-opacity="1"><g transform="translate(502.499189, 212.249986)"><g><path d="M 3.09375 -19.875 C 3.09375 -23.90625 3.90625 -27.441406 5.53125 -30.484375 C 7.164062 -33.535156 9.410156 -35.898438 12.265625 -37.578125 C 15.128906 -39.265625 18.3125 -40.109375 21.8125 -40.109375 C 25.269531 -40.109375 28.269531 -39.363281 30.8125 -37.875 C 33.351562 -36.382812 35.25 -34.507812 36.5 -32.25 L 36.5 -39.453125 L 43.125 -39.453125 L 43.125 0 L 36.5 0 L 36.5 -7.34375 C 35.207031 -5.039062 33.273438 -3.132812 30.703125 -1.625 C 28.140625 -0.113281 25.15625 0.640625 21.75 0.640625 C 18.238281 0.640625 15.066406 -0.21875 12.234375 -1.9375 C 9.398438 -3.664062 7.164062 -6.085938 5.53125 -9.203125 C 3.90625 -12.328125 3.09375 -15.882812 3.09375 -19.875 Z M 36.5 -19.796875 C 36.5 -22.773438 35.898438 -25.367188 34.703125 -27.578125 C 33.503906 -29.785156 31.882812 -31.476562 29.84375 -32.65625 C 27.800781 -33.832031 25.554688 -34.421875 23.109375 -34.421875 C 20.660156 -34.421875 18.425781 -33.84375 16.40625 -32.6875 C 14.394531 -31.53125 12.789062 -29.847656 11.59375 -27.640625 C 10.394531 -25.441406 9.796875 -22.851562 9.796875 -19.875 C 9.796875 -16.851562 10.394531 -14.222656 11.59375 -11.984375 C 12.789062 -9.753906 14.394531 -8.050781 16.40625 -6.875 C 18.425781 -5.695312 20.660156 -5.109375 23.109375 -5.109375 C 25.554688 -5.109375 27.800781 -5.695312 29.84375 -6.875 C 31.882812 -8.050781 33.503906 -9.753906 34.703125 -11.984375 C 35.898438 -14.222656 36.5 -16.828125 36.5 -19.796875 Z M 36.5 -19.796875 "/></g></g></g><g fill="#38b6ff" fill-opacity="1"><g transform="translate(551.178877, 212.249986)"><g><path d="M 8.921875 -45.859375 C 7.679688 -45.859375 6.628906 -46.289062 5.765625 -47.15625 C 4.898438 -48.019531 4.46875 -49.078125 4.46875 -50.328125 C 4.46875 -51.578125 4.898438 -52.632812 5.765625 -53.5 C 6.628906 -54.363281 7.679688 -54.796875 8.921875 -54.796875 C 10.128906 -54.796875 11.148438 -54.363281 11.984375 -53.5 C 12.828125 -52.632812 13.25 -51.578125 13.25 -50.328125 C 13.25 -49.078125 12.828125 -48.019531 11.984375 -47.15625 C 11.148438 -46.289062 10.128906 -45.859375 8.921875 -45.859375 Z M 12.09375 -39.453125 L 12.09375 0 L 5.546875 0 L 5.546875 -39.453125 Z M 12.09375 -39.453125 "/></g></g></g><g fill="#00bf63" fill-opacity="1"><g transform="translate(568.897626, 212.249986)"><g><path d="M 40.53125 -39.453125 L 40.53125 0 L 33.984375 0 L 33.984375 -5.828125 C 32.734375 -3.816406 30.992188 -2.242188 28.765625 -1.109375 C 26.535156 0.015625 24.078125 0.578125 21.390625 0.578125 C 18.316406 0.578125 15.554688 -0.0546875 13.109375 -1.328125 C 10.660156 -2.597656 8.726562 -4.503906 7.3125 -7.046875 C 5.894531 -9.597656 5.1875 -12.695312 5.1875 -16.34375 L 5.1875 -39.453125 L 11.65625 -39.453125 L 11.65625 -17.203125 C 11.65625 -13.316406 12.640625 -10.328125 14.609375 -8.234375 C 16.578125 -6.148438 19.269531 -5.109375 22.6875 -5.109375 C 26.1875 -5.109375 28.941406 -6.1875 30.953125 -8.34375 C 32.972656 -10.507812 33.984375 -13.65625 33.984375 -17.78125 L 33.984375 -39.453125 Z M 40.53125 -39.453125 "/></g></g></g><g fill="#ff3131" fill-opacity="1"><g transform="translate(614.987463, 212.249986)"><g><path d="M 13.53125 -34.0625 L 13.53125 -10.796875 C 13.53125 -8.878906 13.9375 -7.523438 14.75 -6.734375 C 15.570312 -5.941406 16.992188 -5.546875 19.015625 -5.546875 L 23.828125 -5.546875 L 23.828125 0 L 17.921875 0 C 14.273438 0 11.539062 -0.835938 9.71875 -2.515625 C 7.894531 -4.203125 6.984375 -6.960938 6.984375 -10.796875 L 6.984375 -34.0625 L 1.875 -34.0625 L 1.875 -39.453125 L 6.984375 -39.453125 L 6.984375 -49.390625 L 13.53125 -49.390625 L 13.53125 -39.453125 L 23.828125 -39.453125 L 23.828125 -34.0625 Z M 13.53125 -34.0625 "/></g></g></g><g fill="#38b6ff" fill-opacity="1"><g transform="translate(641.202309, 212.249986)"><g><path d="M 3.09375 -19.875 C 3.09375 -23.90625 3.90625 -27.441406 5.53125 -30.484375 C 7.164062 -33.535156 9.410156 -35.898438 12.265625 -37.578125 C 15.128906 -39.265625 18.3125 -40.109375 21.8125 -40.109375 C 25.269531 -40.109375 28.269531 -39.363281 30.8125 -37.875 C 33.351562 -36.382812 35.25 -34.507812 36.5 -32.25 L 36.5 -39.453125 L 43.125 -39.453125 L 43.125 0 L 36.5 0 L 36.5 -7.34375 C 35.207031 -5.039062 33.273438 -3.132812 30.703125 -1.625 C 28.140625 -0.113281 25.15625 0.640625 21.75 0.640625 C 18.238281 0.640625 15.066406 -0.21875 12.234375 -1.9375 C 9.398438 -3.664062 7.164062 -6.085938 5.53125 -9.203125 C 3.90625 -12.328125 3.09375 -15.882812 3.09375 -19.875 Z M 36.5 -19.796875 C 36.5 -22.773438 35.898438 -25.367188 34.703125 -27.578125 C 33.503906 -29.785156 31.882812 -31.476562 29.84375 -32.65625 C 27.800781 -33.832031 25.554688 -34.421875 23.109375 -34.421875 C 20.660156 -34.421875 18.425781 -33.84375 16.40625 -32.6875 C 14.394531 -31.53125 12.789062 -29.847656 11.59375 -27.640625 C 10.394531 -25.441406 9.796875 -22.851562 9.796875 -19.875 C 9.796875 -16.851562 10.394531 -14.222656 11.59375 -11.984375 C 12.789062 -9.753906 14.394531 -8.050781 16.40625 -6.875 C 18.425781 -5.695312 20.660156 -5.109375 23.109375 -5.109375 C 25.554688 -5.109375 27.800781 -5.695312 29.84375 -6.875 C 31.882812 -8.050781 33.503906 -9.753906 34.703125 -11.984375 C 35.898438 -14.222656 36.5 -16.828125 36.5 -19.796875 Z M 36.5 -19.796875 "/></g></g></g><g fill="#ffde59" fill-opacity="1"><g transform="translate(689.881993, 212.249986)"><g><path d="M 8.921875 -45.859375 C 7.679688 -45.859375 6.628906 -46.289062 5.765625 -47.15625 C 4.898438 -48.019531 4.46875 -49.078125 4.46875 -50.328125 C 4.46875 -51.578125 4.898438 -52.632812 5.765625 -53.5 C 6.628906 -54.363281 7.679688 -54.796875 8.921875 -54.796875 C 10.128906 -54.796875 11.148438 -54.363281 11.984375 -53.5 C 12.828125 -52.632812 13.25 -51.578125 13.25 -50.328125 C 13.25 -49.078125 12.828125 -48.019531 11.984375 -47.15625 C 11.148438 -46.289062 10.128906 -45.859375 8.921875 -45.859375 Z M 12.09375 -39.453125 L 12.09375 0 L 5.546875 0 L 5.546875 -39.453125 Z M 12.09375 -39.453125 "/></g></g></g></svg>